<?xml version="1.0" standalone="no"?>
<!DOCTYPE svg PUBLIC "-//W3C//DTD SVG 20010904//EN"
 "http://www.w3.org/TR/2001/REC-SVG-20010904/DTD/svg10.dtd">
<svg version="1.0" xmlns="http://www.w3.org/2000/svg"
 width="400.000000pt" height="400.000000pt" viewBox="0 0 400.000000 400.000000"
 preserveAspectRatio="xMidYMid meet">
<metadata>
Created by potrace 1.14, written by Peter Selinger 2001-2017
</metadata>
<g transform="translate(0.000000,400.000000) scale(0.100000,-0.100000)"
fill="#000000" stroke="none">
<path d="M1700 3429 c-30 -18 -99 -76 -153 -130 -90 -89 -101 -97 -124 -88
-13 5 -53 9 -87 9 -74 0 -111 -20 -162 -87 -92 -121 -60 -284 73 -370 56 -36
197 -93 231 -93 9 0 51 -15 92 -33 171 -75 395 -258 445 -364 32 -67 57 -193
53 -265 l-3 -53 -194 -7 c-321 -11 -462 -34 -476 -79 -18 -56 50 -86 333 -149
117 -26 215 -50 218 -53 8 -8 -68 -116 -107 -153 -19 -18 -54 -44 -79 -59 -25
-15 -60 -41 -77 -58 -55 -52 -44 -96 69 -270 28 -43 49 -79 47 -81 -2 -2 -73
-42 -158 -90 -316 -179 -401 -240 -401 -288 0 -40 25 -53 96 -51 138 4 473
106 668 204 58 29 59 30 136 18 68 -11 91 -10 171 6 109 21 136 19 386 -29
340 -65 407 -68 419 -20 12 48 -81 117 -327 241 -85 43 -159 82 -166 86 -8 5
-6 21 9 59 38 100 59 219 65 371 3 87 10 147 16 147 19 0 296 138 352 176 100
66 96 116 -9 127 -53 5 -245 -5 -358 -19 -51 -6 -58 -5 -64 12 -54 158 -123
283 -222 399 -72 86 -152 151 -347 285 -174 120 -356 255 -356 265 0 4 35 22
78 39 96 39 141 69 149 102 9 36 -11 72 -43 80 -24 7 -127 -10 -213 -33 -21
-5 -17 3 29 53 132 144 167 217 123 257 -28 25 -71 20 -132 -14z m106 -23 c8
-21 -10 -50 -83 -138 -70 -84 -170 -178 -189 -178 -22 0 -53 48 -46 73 8 33
169 190 232 225 61 35 78 39 86 18z m-392 -237 c13 -6 27 -22 30 -36 4 -13 22
-41 41 -62 19 -21 35 -45 35 -54 0 -9 15 -32 34 -52 25 -27 41 -35 63 -33 22
1 54 -18 148 -89 66 -50 190 -139 275 -198 210 -145 289 -211 365 -308 269
-339 329 -853 145 -1233 -53 -110 -99 -160 -176 -195 -50 -23 -141 -36 -206
-31 l-47 4 16 24 c11 17 13 28 6 35 -7 7 -26 -1 -61 -25 -141 -102 -591 -255
-749 -256 -29 0 -53 4 -53 9 0 23 243 177 472 300 54 29 100 57 104 62 3 5
-25 56 -63 112 -84 125 -111 182 -97 205 12 19 145 114 151 108 3 -2 -3 -18
-11 -35 -20 -37 -20 -41 -1 -41 20 0 79 94 116 183 42 101 37 98 124 74 76
-21 92 -19 82 6 -8 20 -105 48 -388 111 -252 56 -332 80 -326 100 10 29 312
56 635 56 188 0 203 1 200 18 -3 14 -16 17 -86 20 l-82 3 0 72 c0 88 -21 191
-53 261 -69 151 -362 369 -572 426 -233 64 -339 162 -318 296 11 69 65 149
113 167 27 10 109 7 134 -4z m481 -58 c13 -22 -72 -73 -184 -110 -87 -28 -116
-27 -137 5 -24 36 -9 48 106 79 52 15 100 28 105 30 22 8 104 4 110 -4z m1193
-1162 c-9 -27 -379 -222 -393 -207 -2 2 -12 45 -23 97 -13 66 -15 94 -7 97 53
21 429 32 423 13z m-355 -930 c215 -108 348 -192 330 -210 -11 -11 -133 5
-343 46 -96 18 -194 36 -217 40 -24 4 -43 9 -43 12 0 3 11 14 25 25 13 10 43
48 66 83 23 36 46 65 51 65 4 0 63 -28 131 -61z"/>
<path d="M1306 2975 c-20 -21 -5 -55 25 -55 24 0 36 27 22 48 -14 23 -29 25
-47 7z"/>
</g>
</svg>
